<?xml version="1.0" encoding="iso-8859-1"?>
<!-- Generator: Adobe Illustrator 18.0.0, SVG Export Plug-In . SVG Version: 6.00 Build 0)  -->
<!DOCTYPE svg PUBLIC "-//W3C//DTD SVG 1.1//EN" "http://www.w3.org/Graphics/SVG/1.1/DTD/svg11.dtd">
<svg version="1.1" id="Capa_1" xmlns="http://www.w3.org/2000/svg" xmlns:xlink="http://www.w3.org/1999/xlink" x="0px" y="0px"
	 fill="#ffffff" viewBox="0 0 370.359 370.359" style="enable-background:new 0 0 370.359 370.359;" xml:space="preserve">
<path d="M302.518,156.304c-2.969,0-5.888,0.212-8.757,0.585l-17.837-72.8c-0.822-3.355-3.83-5.715-7.285-5.715h-26.463
	c-4.142,0-7.5,3.358-7.5,7.5c0,4.142,3.358,7.5,7.5,7.5h20.579l6.177,25.209H160.454l-8.885-25.209h15.862
	c4.142,0,7.5-3.358,7.5-7.5c0-4.142-3.358-7.5-7.5-7.5h-26.458c-2.434,0-4.716,1.181-6.122,3.167
	c-1.406,1.986-1.761,4.531-0.952,6.826l12.753,36.181l-39.546,44.327c-11.091-7.902-24.639-12.57-39.264-12.57
	C30.434,156.304,0,186.739,0,224.148c0,37.406,30.434,67.838,67.842,67.838c34.873,0,63.672-26.45,67.418-60.338h55.098
	c2.138,0,4.173-0.912,5.597-2.507l78.506-87.994l4.726,19.291c-25.949,9.534-44.51,34.495-44.51,63.71
	c0,37.406,30.434,67.838,67.842,67.838s67.842-30.432,67.842-67.838C370.359,186.739,339.926,156.304,302.518,156.304z
	 M179.114,216.648H135.26c-1.596-14.438-7.735-27.524-16.959-37.791l34.044-38.159L179.114,216.648z M108.239,190.135
	c6.231,7.39,10.474,16.502,11.903,26.514H84.584L108.239,190.135z M67.842,276.987C38.705,276.987,15,253.284,15,224.148
	c0-29.139,23.705-52.845,52.842-52.845c10.794,0,20.837,3.259,29.211,8.837l-34.808,39.015c-1.968,2.206-2.456,5.362-1.248,8.059
	c1.208,2.698,3.889,4.434,6.845,4.434h52.3C116.488,257.243,94.432,276.987,67.842,276.987z M192.747,210.204l-27.006-76.622h95.367
	L192.747,210.204z M302.518,276.987c-29.137,0-52.842-23.703-52.842-52.838c0-22.165,13.723-41.174,33.112-49.009l12.445,50.793
	c0.839,3.424,3.904,5.717,7.279,5.717c0.591,0,1.191-0.07,1.791-0.217c4.023-0.986,6.485-5.046,5.5-9.069l-12.448-50.804
	c1.7-0.166,3.421-0.256,5.163-0.256c29.137,0,52.842,23.706,52.842,52.845C355.359,253.284,331.655,276.987,302.518,276.987z"/>
<g>
</g>
<g>
</g>
<g>
</g>
<g>
</g>
<g>
</g>
<g>
</g>
<g>
</g>
<g>
</g>
<g>
</g>
<g>
</g>
<g>
</g>
<g>
</g>
<g>
</g>
<g>
</g>
<g>
</g>
</svg>
